<svg width="150" height="37" viewBox="0 0 150 37" fill="none" xmlns="http://www.w3.org/2000/svg">
<circle cx="18.0211" cy="18.0211" r="18.0211" fill="white"/>
<path d="M54.8925 12.6028V14.2848C54.8925 14.453 54.8364 14.5932 54.7243 14.7053C54.6121 14.8174 54.472 14.8735 54.3038 14.8735H47.4918V17.0601H52.79C52.9582 17.0601 53.0984 17.1161 53.2105 17.2283C53.3226 17.3404 53.3787 17.4805 53.3787 17.6487V19.3307C53.3787 19.4989 53.3226 19.6391 53.2105 19.7512C53.0984 19.8633 52.9582 19.9194 52.79 19.9194H47.4918V23.1992C47.4918 23.3674 47.4358 23.5076 47.3236 23.6197C47.2115 23.7319 47.0713 23.7879 46.9031 23.7879H44.3802C44.212 23.7879 44.0718 23.7319 43.9597 23.6197C43.8476 23.5076 43.7915 23.3674 43.7915 23.1992V12.6028C43.7915 12.4347 43.8476 12.2945 43.9597 12.1824C44.0718 12.0702 44.212 12.0142 44.3802 12.0142H54.3038C54.472 12.0142 54.6121 12.0702 54.7243 12.1824C54.8364 12.2945 54.8925 12.4347 54.8925 12.6028Z" fill="white"/>
<path d="M64.7016 23.1992L64.1129 21.6855H58.8147L58.2261 23.1992C58.0691 23.5917 57.8168 23.7879 57.4692 23.7879H54.778C54.5986 23.7879 54.4641 23.7319 54.3744 23.6197C54.2846 23.5076 54.279 23.3674 54.3575 23.1992L59.067 12.6028C59.2464 12.2104 59.4987 12.0142 59.8239 12.0142H63.2719C63.6083 12.0142 63.8606 12.2048 64.0288 12.586L68.7383 23.1992C68.8168 23.3674 68.8112 23.5076 68.7215 23.6197C68.6318 23.7319 68.4973 23.7879 68.3178 23.7879H65.4585C65.1109 23.7879 64.8586 23.5917 64.7016 23.1992ZM61.4218 15.5463L59.9921 18.9102H62.9356L61.59 15.5463H61.4218Z" fill="white"/>
<path d="M79.9866 12.6028V14.2848C79.9866 14.453 79.9305 14.5932 79.8184 14.7053C79.7063 14.8174 79.5661 14.8735 79.3979 14.8735H75.8658V23.1992C75.8658 23.3674 75.8097 23.5076 75.6976 23.6197C75.5855 23.7319 75.4453 23.7879 75.2771 23.7879H72.7542C72.586 23.7879 72.4458 23.7319 72.3337 23.6197C72.2215 23.5076 72.1655 23.3674 72.1655 23.1992V14.8735H68.6333C68.4651 14.8735 68.325 14.8174 68.2129 14.7053C68.1007 14.5932 68.0447 14.453 68.0447 14.2848V12.6028C68.0447 12.4347 68.1007 12.2945 68.2129 12.1824C68.325 12.0702 68.4651 12.0142 68.6333 12.0142H79.3979C79.5661 12.0142 79.7063 12.0702 79.8184 12.1824C79.9305 12.2945 79.9866 12.4347 79.9866 12.6028Z" fill="white"/>
<path d="M90.6038 23.7879H88.5686C88.3331 23.7879 88.1313 23.7262 87.9631 23.6029C87.8061 23.4796 87.6996 23.345 87.6435 23.1992L85.3728 17.6487H85.2046V23.1992C85.2046 23.3674 85.1486 23.5076 85.0364 23.6197C84.9243 23.7319 84.7842 23.7879 84.616 23.7879H82.093C81.9248 23.7879 81.7846 23.7319 81.6725 23.6197C81.5604 23.5076 81.5043 23.3674 81.5043 23.1992V12.6028C81.5043 12.4347 81.5604 12.2945 81.6725 12.1824C81.7846 12.0702 81.9248 12.0142 82.093 12.0142H85.6251C85.8606 12.0142 86.0568 12.0758 86.2138 12.1992C86.382 12.3225 86.4942 12.4571 86.5502 12.6028L89.4937 19.7512H89.6619L92.6053 12.6028C92.6614 12.4571 92.7679 12.3225 92.9249 12.1992C93.0931 12.0758 93.2949 12.0142 93.5304 12.0142H97.0625C97.2307 12.0142 97.3709 12.0702 97.483 12.1824C97.5951 12.2945 97.6512 12.4347 97.6512 12.6028V23.1992C97.6512 23.3674 97.5951 23.5076 97.483 23.6197C97.3709 23.7319 97.2307 23.7879 97.0625 23.7879H94.5396C94.3714 23.7879 94.2312 23.7319 94.1191 23.6197C94.0069 23.5076 93.9509 23.3674 93.9509 23.1992V17.6487H93.7827L91.5288 23.1992C91.4728 23.345 91.3606 23.4796 91.1924 23.6029C91.0355 23.7262 90.8392 23.7879 90.6038 23.7879Z" fill="white"/>
<path d="M111.617 12.6028V14.2848C111.617 14.453 111.561 14.5932 111.449 14.7053C111.337 14.8174 111.197 14.8735 111.029 14.8735H103.88V16.3873H109.179C109.347 16.3873 109.487 16.4433 109.599 16.5555C109.711 16.6676 109.767 16.8078 109.767 16.976V18.6579C109.767 18.8261 109.711 18.9663 109.599 19.0784C109.487 19.1905 109.347 19.2466 109.179 19.2466H103.88V20.9286H111.029C111.197 20.9286 111.337 20.9846 111.449 21.0968C111.561 21.2089 111.617 21.3491 111.617 21.5173V23.1992C111.617 23.3674 111.561 23.5076 111.449 23.6197C111.337 23.7319 111.197 23.7879 111.029 23.7879H100.769C100.601 23.7879 100.46 23.7319 100.348 23.6197C100.236 23.5076 100.18 23.3674 100.18 23.1992V12.6028C100.18 12.4347 100.236 12.2945 100.348 12.1824C100.46 12.0702 100.601 12.0142 100.769 12.0142H111.029C111.197 12.0142 111.337 12.0702 111.449 12.1824C111.561 12.2945 111.617 12.4347 111.617 12.6028Z" fill="white"/>
<path d="M124.401 12.6028V14.2848C124.401 14.453 124.345 14.5932 124.233 14.7053C124.121 14.8174 123.981 14.8735 123.812 14.8735H120.28V23.1992C120.28 23.3674 120.224 23.5076 120.112 23.6197C120 23.7319 119.86 23.7879 119.692 23.7879H117.169C117 23.7879 116.86 23.7319 116.748 23.6197C116.636 23.5076 116.58 23.3674 116.58 23.1992V14.8735H113.048C112.88 14.8735 112.739 14.8174 112.627 14.7053C112.515 14.5932 112.459 14.453 112.459 14.2848V12.6028C112.459 12.4347 112.515 12.2945 112.627 12.1824C112.739 12.0702 112.88 12.0142 113.048 12.0142H123.812C123.981 12.0142 124.121 12.0702 124.233 12.1824C124.345 12.2945 124.401 12.4347 124.401 12.6028Z" fill="white"/>
<path d="M134.05 23.1992L133.461 21.6855H128.163L127.574 23.1992C127.417 23.5917 127.165 23.7879 126.817 23.7879H124.126C123.947 23.7879 123.812 23.7319 123.723 23.6197C123.633 23.5076 123.627 23.3674 123.706 23.1992L128.415 12.6028C128.595 12.2104 128.847 12.0142 129.172 12.0142H132.62C132.957 12.0142 133.209 12.2048 133.377 12.586L138.087 23.1992C138.165 23.3674 138.159 23.5076 138.07 23.6197C137.98 23.7319 137.845 23.7879 137.666 23.7879H134.807C134.459 23.7879 134.207 23.5917 134.05 23.1992ZM130.77 15.5463L129.34 18.9102H132.284L130.938 15.5463H130.77Z" fill="white"/>
<path d="M150 21.5173V23.1992C150 23.3674 149.944 23.5076 149.832 23.6197C149.72 23.7319 149.58 23.7879 149.412 23.7879H139.993C139.825 23.7879 139.684 23.7319 139.572 23.6197C139.46 23.5076 139.404 23.3674 139.404 23.1992V12.6028C139.404 12.4347 139.46 12.2945 139.572 12.1824C139.684 12.0702 139.825 12.0142 139.993 12.0142H142.516C142.684 12.0142 142.824 12.0702 142.936 12.1824C143.048 12.2945 143.104 12.4347 143.104 12.6028V20.9286H149.412C149.58 20.9286 149.72 20.9846 149.832 21.0968C149.944 21.2089 150 21.3491 150 21.5173Z" fill="white"/>
<path d="M27.3565 10.2952V12.9383C27.3565 13.2026 27.2684 13.4229 27.0922 13.5991C26.916 13.7753 26.6957 13.8634 26.4314 13.8634H15.7269V17.2994H24.0526C24.3169 17.2994 24.5372 17.3875 24.7134 17.5637C24.8896 17.7399 24.9777 17.9602 24.9777 18.2245V20.8676C24.9777 21.1319 24.8896 21.3521 24.7134 21.5283C24.5372 21.7045 24.3169 21.7926 24.0526 21.7926H15.7269V26.9467C15.7269 27.211 15.6388 27.4312 15.4626 27.6074C15.2864 27.7836 15.0661 27.8717 14.8018 27.8717H10.8372C10.5729 27.8717 10.3526 27.7836 10.1764 27.6074C10.0002 27.4312 9.91211 27.211 9.91211 26.9467V10.2952C9.91211 10.0309 10.0002 9.81063 10.1764 9.63443C10.3526 9.45822 10.5729 9.37012 10.8372 9.37012H26.4314C26.6957 9.37012 26.916 9.45822 27.0922 9.63443C27.2684 9.81063 27.3565 10.0309 27.3565 10.2952Z" fill="#512A56"/>
</svg>
